<svg xmlns="http://www.w3.org/2000/svg" viewBox="0 0 800 600">
  <!-- Sky -->
  <rect width="800" height="300" fill="#87CEEB"/>
  
  <!-- Ocean -->
  <rect y="300" width="800" height="150" fill="#1E90FF"/>
  
  <!-- Beach -->
  <path d="M0,450 C200,400 400,500 800,450 L800,600 L0,600 Z" fill="#F5DEB3"/>
  
  <!-- Sun -->
  <circle cx="700" cy="100" r="60" fill="#FFD700"/>
  
  <!-- Palm Tree -->
  <rect x="100" y="400" width="20" height="80" fill="#8B4513"/>
  <path d="M110,400 C80,380 60,350 70,330 C90,340 110,330 110,310 C130,330 150,340 150,330 C160,350 140,380 110,400" fill="#228B22"/>
  
  <!-- Waves -->
  <path d="M0,380 Q100,360 200,380 Q300,400 400,380 Q500,360 600,380 Q700,400 800,380 L800,450 L0,450 Z" fill="#4682B4" opacity="0.5"/>
  
  <!-- Small Boat -->
  <path d="M600,350 L650,350 L640,370 L610,370 Z" fill="#8B4513"/>
  <rect x="625" y="330" width="2" height="20" fill="#A0522D"/>
  <path d="M627,330 L627,350 L640,340 Z" fill="#F5F5DC"/>
  
  <!-- Birds -->
  <path d="M500,150 Q510,140 520,150 Q530,140 540,150" fill="none" stroke="#000" stroke-width="2"/>
  <path d="M550,120 Q560,110 570,120 Q580,110 590,120" fill="none" stroke="#000" stroke-width="2"/>
</svg>